<?xml version="1.0" encoding="UTF-8"?>
<svg version="1.1" viewBox="0 0 2048 1324" width="105" height="105" xmlns="http://www.w3.org/2000/svg">
<path transform="translate(1464,100)" d="m0 0 4 2 10 14 14 25 9 17 13 30 8 22 10 37 5 27 3 28v16l-3 22-6 20-7 16-9 16-12 16-9 11-20 20-11 9-13 10-15 10-16 9-2 2 9 19 9 24 6 21 5 26 1 11v34l-2 19-5 23-8 23-8 16-9 15-10 13-14 15-4 5-8 7-12 11-15 11-21 13-21 10-19 7-22 6-28 4-11 1h-27l-27-3-22-5-5 1-9 11-14 14-18 13-16 9-18 7-19 5-20 3h-42l-26-4-27-7-8-3-5 1-9 11-8 8-11 9-14 10-15 9-19 8-23 7-23 4-10 1h-33l-24-3-21-5-20-7-17-8-11-8-7-8-2-4v-6l4-5 8-4 12-4 6 2 17 11 25 12 18 6 18 4 9 1h29l16-3 16-5 17-8 15-10 10-8 10-9 8-8 9-11 8-11 7-16 5-20 3-19 2-4 9 1 3 2v22l-4 25-3 10 8 3 18 5 24 4h35l25-5 19-7 17-9 13-10 12-11 9-10 9-14 7-19 7-25 6-30 4-26 1-12 2-3 5 1 3 5 5 17 2 16v27l-3 21-6 21-3 9 25 5 15 2 13 1h23l21-2 24-5 24-8 21-10 20-13 16-13 13-12 11-12 10-13 10-18 8-21 6-26 2-21v-15l-2-22-5-24-10-30-8-18-13-26-2-3v-3l30-15 19-12 19-14 13-12 8-7 2-3h2l2-4 8-9 10-15 6-10 7-17 5-19 1-8v-22l-3-24-6-29-9-31-10-26-9-20-9-17-5-8v-2l-20 8-28 11-33 14-36 16-37 17-25 12-48 24-41 21-23 13-24 13-23 13-26 15-30 18h-3l-12-35-2-10 19-12 18-11 29-17 24-13 23-12 54-27 29-13 35-16 26-11 27-11 33-13 39-15 34-12z" fill="#007CA4"/>
<path transform="translate(1235,38)" d="m0 0h43l30 5 24 7 18 8 12 7 10 9 4 7-1 7-8 6-17 5-16-10-14-8-18-8-19-6-14-3-20-2-17 1-15 2-17 5-16 7-16 10-11 9-12 11-7 7-9 11-7 9-5 7-1 1-1 5-5 15-3 15-2 13-3 5-3 1-6-4-1-2v-13l2-23 5-20-24-7-16-3-19-2h-16l-24 3-21 6-16 7-14 9-14 11-10 10-8 10-9 12-8 16-6 19-6 23-6 34-3 23-2 5-4-2-4-8-4-14-2-18v-19l3-24 6-23 5-13h2l-1-2-22-5-23-3h-36l-26 4-19 5-22 8-23 12-17 12-11 9-7 7-8 7-7 8-8 9-9 14-8 16-6 15-5 19-3 22v31l3 22 5 21 8 23 9 20 15 30-8 5-22 11-21 13-13 10-11 9-16 15-9 10-13 19-9 16-7 19-3 15-1 8v14l3 26 5 25 6 23 11 32 10 23 8 16 12 21 10 15h2l9-13 26-36 10-13 12-16 11-14 11-13 7-9 11-13 9-11 13-15 12-13 9-10 12-13 11-12 43-43 8-7 16-15 8-7 12-11 11-9 10-9 10-8 16-13 17-13 10-8 1 3-8 25-13 40-3 9-12 12-11 9-15 14-8 7-16 15-8 7-17 16-14 14-8 7-46 46-7 8-16 16-7 8-16 17-9 10-10 11-9 11-10 11-9 11-13 15-11 14-11 13-8 11-9 12-4-2-7-9-10-13-11-16-11-18-14-26-10-22-9-24-8-26-6-26-5-30-1-14v-20l2-16 5-20 9-21 8-14 10-14 11-13 8-8 1-2h2l2-4 8-7 10-9 18-13 17-11 11-6-1-5-10-22-7-20-5-17-4-20-2-12-1-27 1-21 5-27 5-17 6-16 8-16 9-14 8-10 12-14 17-17 11-9 15-11 16-10 21-11 21-8 22-6 17-3 36-2 34 2 25 5 9 1 8-10 7-8 16-14 15-10 15-8 19-7 18-4 13-2 12-1h20l21 2 22 4 19 5 12 4 4 2 2-4 9-10 2-3h2v-2l8-7 14-11 16-10 16-8 19-7 20-5zm-134 88v3zm3 11m3 1m3 1m-225 32 4 1zm-1 1m5 0v1h6v-1zm12 2m3 1 4 2 4-1-2-1zm-22 14m3 1m3 1m4 1m3 1m3 1 4 2-1-2z" fill="#FD9A03"/>
<path transform="translate(916,494)" d="m0 0 1 3-8 25-13 40-3 9-12 12-11 9-15 14-8 7-16 15-8 7-17 16-14 14-8 7-46 46-7 8-16 16-7 8-16 17-9 10-10 11-9 11-10 11-9 11-13 15-11 14-11 13-8 11-9 12-4-2-7-9-10-13-11-16-11-18-14-26-10-22-9-24-8-26-6-26-5-30-1-14v-20l2-7 4-2v-7l2-4 8-5 9-3 4-1 5-1-1 7-4 18-1 8v14l3 26 5 25 6 23 11 32 10 23 8 16 12 21 10 15h2l9-13 26-36 10-13 12-16 11-14 11-13 7-9 11-13 9-11 13-15 12-13 9-10 12-13 11-12 43-43 8-7 16-15 8-7 12-11 11-9 10-9 10-8 16-13 17-13z" fill="#E95B06"/>
<path transform="translate(1015,275)" d="m0 0h2l10 31 20 61v2h99l-4 5-17 12-18 13-19 14-18 13-3 3 19 58 11 33v2l-5-1-11-9-13-9-18-13-19-14-12-9-5-1-13 10-18 13-19 14-19 13-9 7-1-3 12-37 9-27 8-25-1-4-16-12-14-10-19-14-28-20v-2l98-1 3-8 10-30 9-28z" fill="#FC7E08"/>
<path transform="translate(1263,992)" d="m0 0h21l19 4 16 8 9 7 6 5 8 11 6 13 3 11v5h-38l-7-14-7-8-12-6-4-1h-19l-12 4-9 6-7 8-5 10-3 9-2 9-1 9v13l3 17 5 13 6 9 8 7 10 5 7 2h20l13-4 7-5h2l2-4 4-6 4-13 1-5-39-1-1-1v-29h76l1 1v97l-5 1h-20l-3-8-2-11-7 6-8 7-14 7-15 3h-15l-17-3-14-5-11-6-11-9-9-10-8-13-5-11-5-19-1-10v-16l2-17 5-17 9-17 10-13 9-8 13-8 11-5z" fill="#37556A"/>
<path transform="translate(176,992)" d="m0 0h21l19 4 16 8 11 8 9 10 8 15 4 14v5h-38l-8-16-7-7-11-5-3-1h-19l-13 4-11 8-7 10-6 16-2 11v24l3 14 5 12 8 11 10 7 12 4h20l13-4 9-6 6-9 4-11 2-8h-40l-1-1v-28l1-1h75l1 1v97l-7 1h-18l-2-5-2-11v-4l-16 14-14 7-14 3h-16l-17-3-16-6-10-6-13-11-8-10-6-11-6-14-4-19v-30l3-15 5-15 9-16 11-12 9-8 14-8 15-5z" fill="#37546A"/>
<path transform="translate(661,208)" d="m0 0 5 1-4 8v2h-2l-2 5-1 3v4l3 1-2 1 2 4h4l-1 2-6 3h-2l-1 4-4 3 1 6-3 7-7 10-8 15-7 18-5 19-3 22v31l3 22 5 21 8 23 9 20 15 30-8 5-22 11-21 13-13 10-11 9-16 15-9 10-13 19-9 16-4 10-6 1-5 1-10 4-4 3h-2l-2 11-5 3 1-10 5-20 9-21 8-14 10-14 11-13 8-8 1-2h2l2-4 8-7 10-9 18-13 17-11 11-6-1-5-10-22-7-20-5-17-4-20-2-12-1-27 1-21 5-27 5-17 6-16 8-16 9-14 8-10 12-14 15-15z" fill="#FC7E07"/>
<path transform="translate(1680,996)" d="m0 0h34l1 1v96l8-7 15-15 7-8 16-16 43-1-6 7-32 32-8 7-2 2 1 4 29 44 21 31 2 3v3h-42l-4-4-12-20-16-26-5-8-8 6-5 5-1 5v40l-5 2h-31l-1-1v-181z" fill="#37556A"/>
<path transform="translate(625,1043)" d="m0 0h22l18 3 12 5 8 6 6 8 3 11 1 89 2 9 1 4-3 1h-32l-2-1-2-11h-3v2l-9 6-12 5-12 2h-19l-13-4-10-6-6-7-4-9-2-11 1-13 4-10 7-8 10-6 13-4 39-6 10-4 3-4v-10l-4-8-7-3-5-1h-11l-9 3-6 5-4 11h-36v-7l5-13 7-9 10-7 13-5zm30 72-9 3-26 5-8 4-5 6-1 3v10l3 6 5 4 7 2h15l8-3 6-4 5-8 2-8 1-20z" fill="#37556A"/>
<path transform="translate(345,1043)" d="m0 0h23l17 3 11 4 10 7 5 7 3 8 1 74 1 22 2 6 1 4-10 1h-25l-3-2-1-10-5 3-9 6-10 4-12 2h-19l-9-2-12-6-7-7-5-9-2-9v-13l3-11 6-8 7-6 11-5 19-4 28-4 9-4 3-3 1-3v-7l-3-7-5-4-9-2h-11l-9 3-5 4-5 12h-35l-1-4 4-13 6-9 8-7 14-7 12-3zm31 72-9 3-26 5-10 5-4 6-1 9 3 8 6 5 6 2h15l11-4 8-9 2-6 1-8v-16z" fill="#37556A"/>
<path transform="translate(1581,1043)" d="m0 0h18l16 4 11 6 10 9 7 8 8 17 3 12 1 9v13l-13 1h-73l-10-1 3 14 5 10 6 5 7 3 5 1h13l11-4 9-8 2-4 3-1 29 1-3 9-8 13-8 9-11 7-11 4-12 2h-20l-16-4-12-6-10-9-7-8-7-14-4-17v-22l4-16 7-14 8-10 8-7 12-7 13-4zm-1 28-10 5-7 8-4 10v5h59l-1-7-4-10-6-7-9-4z" fill="#37556A"/>
<path transform="translate(1434,1043)" d="m0 0h18l16 4 10 5 10 8 6 7 7 12 4 11 3 17v14l-21 1h-74l2 13 5 10 8 6 10 3h13l11-4 5-4h2l2-4 5-5 29 1-3 9-6 11-11 12-12 7-13 4-8 1h-20l-13-3-16-8-10-9-7-9-6-13-3-10-1-7v-20l2-10 5-13 7-12 7-8 11-8 10-5zm-1 28-10 5-7 8-4 11 1 4h58l-1-8-6-12-7-6-6-2z" fill="#37546A"/>
<path transform="translate(1865,1043)" d="m0 0h22l16 3 12 5 9 7 7 10 4 11v6l-33 1-2-2-3-8-5-5-11-3h-12l-10 4-2 3v8l2 4 10 5 40 10 14 6 11 10 4 9 1 4v10l-2 10-6 12-7 7-11 6-12 4-13 2h-22l-15-3-12-5-9-6-7-8-5-11-2-8v-5l33-1 2 1 2 8 4 6 8 5 7 2h13l11-4 4-5 1-2v-9l-4-5-12-5-36-9-12-5-9-6-6-8-3-10v-8l3-12 5-9 9-8 13-6z" fill="#37556A"/>
<path transform="translate(439,1047)" d="m0 0h112v27l-9 11-15 16-9 11-14 15-7 8-9 10-4 6h71l1 4v23l-3 1h-117l-2-1v-27l12-13 7-8 18-20 9-11 8-8 7-8 7-9h-63z" fill="#37556B"/>
<path transform="translate(916,494)" d="m0 0 1 3-8 25-13 40-3 9-12 12-11 9-15 14-8 7-16 15-8 7-17 16-14 14-8 7-44 44-1-3-8 4h-4v2l-8 4v-2l-4 1-3-1 1-10 3-5 7-10 1-2h2l1-6 4-2 4-10h2l2-6h2l1-5 9-10 5-6h2l2-5 2-1 2-3 5-4 1-2h2l1-3h2v-2l6-5 9-9h2l1-3 8-7 5-5 8-9h2l1-4h2v-3h2l1-5 4-6 8-7 5-5 6-7 2-4 14-12 13-11 14-11 15-12 9-7z" fill="#FB7E07"/>
<path transform="translate(807,993)" d="m0 0h26l15 3 16 8 8 6 8 9 5 11 2 6 1 12-1 1h-16l-5-16-6-10-7-6-12-6-7-2-8-1h-13l-15 3-11 6-7 8-3 8-1 4v12l4 10 7 6 8 4 28 7 31 8 15 6 11 7 8 9 5 10 1 5v18l-4 13-6 9-5 5-6 5-12 6-15 4-8 1h-29l-15-3-13-5-11-7-7-7-8-14-3-12v-16h16l1 1 3 18 6 12 5 5 5 4 10 5 14 3 9 1h12l15-3 10-4 9-7 6-7 3-11v-8l-4-11-5-5-5-4-13-6-26-7-32-8-16-7-9-8-7-14-1-4v-17l4-13 6-10 9-9 16-8z" fill="#36556B"/>
<path transform="translate(890,406)" d="m0 0 5 2 13 10 13 9-2 4-12 8-18 13-17 12-38 28-30 23-17 13-17 14-14 11-16 13-26 22-11 9-14 12-10 9-11 9-15 14-8 7-15 14-13 12-15 14-7 7-4 2 2-4h2l2-4 54-54 1-2h2l2-4 27-27 7-8 79-79 8-7 14-14 8-7 8-8 8-7 12-11 13-12 10-9 11-9 11-10 11-9z" fill="#007DA5"/>
<path transform="translate(919,996)" d="m0 0h15l1 1v113l11-9 13-12 11-9 13-12 11-9 12-11 2-1h21l-5 5-13 12-11 9-13 12-11 9-1 4 14 18 12 17 10 14 13 18 9 12v2h-19l-5-5-12-17-13-18-14-19-8-11-4 1-14 12-8 6-1 50-2 1h-13l-1-1z" fill="#37556B"/>
<path transform="translate(1235,38)" d="m0 0h43l30 5 24 7 18 8 12 7 10 9 4 7-1 7-8 6-17 5-16-10-14-8-18-8-19-6-14-3-20-2-17 1-21 2-4-2-10 1-17 3-9 5-3-2 8-7 4-5 13-7 2-2 7-2 1-3 25-5z" fill="#FC7F07"/>
<path transform="translate(1032,1047)" d="m0 0h17l4 9 17 44 19 49 2 9h2l3-10 15-41 14-38 7-21 1-1h16l-3 10-26 69-16 42-14 37-7 12-9 8-8 2h-20l-1-1v-13h14l9-3 4-4 7-14 5-14-20-50-13-32-19-48z" fill="#36556B"/>
<path transform="translate(1388,229)" d="m0 0 3 1-24 13-23 12-23 13-24 14-22 13-23 14-22 14-19 12-14 9-3 1h-39l1-3 108-54 73-35 36-17z" fill="#FC8007"/>
<path transform="translate(883,197)" d="m0 0h4v2l4 2 1 2 1 9 2 5-1 8-6 23-6 34-3 23-2 5-4-2-4-8-4-14-2-18v-19l2-19 4-4h2l3-10 3-9 4-5z" fill="#FC7F07"/>
<path transform="translate(1015,275)" d="m0 0h2l10 31 3 9-1 3-3-6v-2h-2v9l1 5-5 1 3 2-1 1 4 2v2l-6-1v2l5 1 4 4 1 3-12-3h-6l-2 1v3l-5 3-7 10-2 4h-2l-1 5-3 2h-3l-1 4-5 2h-84l-4 4-7-5v-2l98-1 3-8 10-30 9-28z" fill="#FD9A03"/>
<path transform="translate(1126,113)" d="m0 0 4 1 2 3-1 6-8 9-6 9-1 1-1 5-5 15-3 15-2 13-3 5-3 1-6-4-1-2v-13l2-23 5-20-13-4-2-4-7-1-1-4h-2l1-3h5l4 1h14l14-2 5 1 3-2zm-25 13v3z" fill="#FC8007"/>
<path transform="translate(1047,369)" d="m0 0h99l-4 5-5 2 1-3-2-1h-71l-15-1z" fill="#FE9B03"/>
<path transform="translate(986,366)" d="m0 0 1 3-6 3h-84l-4 4-7-5v-2l98-1z" fill="#FE9C06"/>
<path transform="translate(615,260)" d="m0 0 4 1 2 3-1 5-6 7-5 8-4 10-4 3-2 3 1-6 6-16 8-16z" fill="#FE9B03"/>
<path transform="translate(1131,84)" d="m0 0 3 1-1 5-3 6-6 4h-3v2l-6-1 1-4 5-6h2v-2l5-4z" fill="#FC8007"/>
<path transform="translate(1388,229)" d="m0 0 3 1-18 10-4-2z" fill="#FD9903"/>
<path transform="translate(627,243)" d="m0 0 1 2h2l-1 5-3 2-4-2z" fill="#FE9B03"/>
<path transform="translate(835,620)" d="m0 0h2l-2 4-7 6h-2v-3h2v-2h2v-2z" fill="#ED6606"/>
<path transform="translate(589,697)" d="m0 0 2 1-3 2z" fill="#007DA5"/>
<path transform="translate(1391,228)" d="m0 0 2 1z" fill="#FE9B03"/>
<path transform="translate(1393,227)" d="m0 0 2 1z" fill="#FE9B03"/>
<path transform="translate(581,706)" d="m0 0" fill="#007DA5"/>
<path transform="translate(582,705)" d="m0 0" fill="#007DA5"/>
<path transform="translate(583,704)" d="m0 0" fill="#007DA5"/>
<path transform="translate(584,703)" d="m0 0" fill="#007DA5"/>
<path transform="translate(585,702)" d="m0 0" fill="#007DA5"/>
<path transform="translate(586,701)" d="m0 0" fill="#007DA5"/>
<path transform="translate(587,700)" d="m0 0" fill="#007DA5"/>
<path transform="translate(1395,226)" d="m0 0" fill="#FE9B03"/>
<path transform="translate(1397,225)" d="m0 0" fill="#FE9B03"/>
</svg>
