<?xml version="1.0" encoding="UTF-8"?>
<svg version="1.1" viewBox="0 0 1600 1600" background="red" fill="none" width="105" height="105" xmlns="http://www.w3.org/2000/svg">
<path transform="translate(0)" d="m0 0h1600v1600h-1600z"/>
<path transform="translate(869,820)" d="m0 0h196l8 7 41 41 8 7 55 55 8 7 25 25 2 3v47l-193 2-1 10-2 100-1 81-1 1h-46l-6-4-26-26-8-7-67-67-8-7-26-26-7-9-3-148v-44l1-1h38l11 1v-37l1-10z" fill="#FD7A3F"/>
<path transform="translate(966,387)" d="m0 0h48l1 4 1 99 1 55 1 31 1 3 42 1 151 1 1 7-1 40-7 8-17 17-8 7-21 21-8 7-73 73-10 9-4 3h-195l-1-1-1-46h-48l-1-1v-84l2-109 3-5 14-14 8-7 17-17 8-7 85-85 8-7z" fill="#FD7A3F"/>
<path transform="translate(576,387)" d="m0 0h46l7 4 20 20 8 7 20 20 8 7v2l3 1 7 8 34 34 8 7 21 21 8 7 5 6 1 84 1 58v52l-1 1h-42l-6 1-1 46-192 1-7-3-10-9-39-39v-2l-4-2-49-49-7-6-5-6-8-7-19-19-3-4-1-9v-38l162-1 32-1 1-42z" fill="#FD7A3F"/>
<path transform="translate(525,825)" d="m0 0h198l1 4v43h49l1 1v29l-3 162-4 6-26 26-8 7-69 69-8 7-14 14-7 8-10 8-2 1h-45l-1-1-1-8-2-134v-50h-193l-1-1-1-43 2-6 11-11 8-7 57-57 8-7 24-24 8-7 10-10 7-8z" fill="#FD7A3F"/>
<path transform="translate(1068,388)" d="m0 0 4 2 42 42 8 7 55 55 8 7 11 12 19 19v2l-2 1h-145z" fill="#FD7A3F"/>
<path transform="translate(526,392)" d="m0 0h2v43l-1 104h-141l-5-1 3-5 9-10 40-40 8-7 12-12 8-7z" fill="#FD7A3F"/>
<path transform="translate(1068,1063)" d="m0 0h147v4l-12 11-23 23-8 7-29 29-8 7-13 13-7 8-15 14-30 30h-2l-1-115v-30z" fill="#FD7A3F"/>
<path transform="translate(382,1063)" d="m0 0h145l1 8v58l-1 81-7-6-5-6-8-7-56-56-8-7-61-61-1-3z" fill="#FD7A3F"/>
<path transform="translate(795,1102)" d="m0 0 4 2 12 11 11 9 11 10 11 9 15 13 12 10v42l-1 1-134 1-11-1-1-1v-39l3-5 8-8 8-7 10-9 11-9 9-9 8-7z" fill="#FD7A3F"/>
<path transform="translate(1205,722)" d="m0 0h6l1 1v140l-2 7h-39l-6-5-9-11-11-13-9-11-13-15-11-13-3-4 1-5 11-13 13-15 9-11 12-14 9-11 5-6z" fill="#FD7A3F"/>
<path transform="translate(380,722)" d="m0 0h38l3 1 9 11 10 11 9 11 10 11 8 10 11 12 5 6-2 5-14 16-13 14-9 11-12 13-8 10-7 6h-38l-1-57v-89z" fill="#FD7A3F"/>
<path transform="translate(722,388)" d="m0 0h146l1 1v38l-4 5-34 26-18 14-17 13-3 1-6-4-17-14-32-26-11-9-4-4-1-4z" fill="#FD7A3F"/>
<path transform="translate(769,771)" d="m0 0h46l3 1v49l-1 1h-46l-3-3v-47z" fill="#FD7A3F"/>
</svg>
