<?xml version="1.0" standalone="no"?>
<!DOCTYPE svg PUBLIC "-//W3C//DTD SVG 20010904//EN"
 "http://www.w3.org/TR/2001/REC-SVG-20010904/DTD/svg10.dtd">
<svg version="1.0" xmlns="http://www.w3.org/2000/svg"
 width="105" height="105" viewBox="0 0 200.000000 200.000000"
 preserveAspectRatio="xMidYMid meet">
<rect width="100%" height="100%" fill="#fce24f" rx="100" /> 
<g transform="translate(0.000000,200.000000) scale(0.100000,-0.100000)"
fill="#01204f" background="#fce24f" stroke="none">
<path d="M1636 1312 c-15 -18 -17 -43 -14 -260 3 -268 4 -269 78 -319 40 -28
120 -32 144 -7 36 35 12 94 -38 94 -56 0 -66 21 -66 143 l0 107 38 0 c45 0 62
14 62 50 0 36 -17 50 -62 50 l-38 0 0 53 c0 28 -6 63 -13 77 -16 33 -66 39
-91 12z"/>
<path d="M138 1179 c-46 -27 -44 -40 52 -242 50 -105 99 -200 107 -209 19 -21
66 -24 81 -5 25 30 193 401 190 420 -2 12 -15 28 -29 36 -44 25 -67 0 -133
-145 -32 -71 -62 -132 -65 -137 -4 -4 -36 56 -71 134 -49 106 -70 143 -88 150
-28 11 -23 11 -44 -2z"/>
<path d="M711 1164 c-167 -83 -176 -330 -17 -429 48 -29 54 -30 191 -33 l142
-4 23 29 c21 26 22 35 18 153 -3 105 -7 133 -27 172 -60 124 -206 173 -330
112z m169 -97 c13 -7 35 -28 48 -47 45 -66 16 -167 -55 -197 -50 -20 -99 -9
-140 32 -29 29 -33 39 -33 85 0 58 19 99 59 123 31 20 87 21 121 4z"/>
<path d="M1234 1171 c-59 -27 -84 -63 -84 -123 0 -43 5 -55 33 -83 22 -22 53
-39 93 -50 108 -30 129 -39 132 -63 7 -49 -99 -54 -169 -8 -45 30 -57 32 -87
10 -33 -23 -29 -66 8 -98 52 -43 163 -65 240 -46 64 15 116 62 125 113 17 90
-30 143 -158 177 -94 25 -117 40 -97 65 21 25 95 19 150 -12 46 -26 49 -26 74
-10 76 50 -31 147 -161 147 -35 0 -74 -8 -99 -19z"/>
</g>
</svg>
